Coordinates
version=1
nRows=8
nColumns=40
inDegrees=yes

Units are S.I. units (second, meters, Newtons, ...)
If the header above contains a line with 'inDegrees', this indicates whether rotational values are in degrees (yes) or radians (no).

endheader
time	pelvis_tilt	pelvis_list	pelvis_rotation	pelvis_tx	pelvis_ty	pelvis_tz	hip_flexion_r	hip_adduction_r	hip_rotation_r	knee_angle_r	knee_angle_r_beta	ankle_angle_r	subtalar_angle_r	mtp_angle_r	hip_flexion_l	hip_adduction_l	hip_rotation_l	knee_angle_l	knee_angle_l_beta	ankle_angle_l	subtalar_angle_l	mtp_angle_l	lumbar_extension	lumbar_bending	lumbar_rotation	arm_flex_r	arm_add_r	arm_rot_r	elbow_flex_r	pro_sup_r	wrist_flex_r	wrist_dev_r	arm_flex_l	arm_add_l	arm_rot_l	elbow_flex_l	pro_sup_l	wrist_flex_l	wrist_dev_l
      7.80000000	    -21.02410900	     -2.99469864	      5.36292567	      0.08885478	      1.28250632	     -0.01315014	     85.43458927	     -5.19956433	      8.66267511	     91.68178640	      1.60014904	      3.93858499	    -26.63300286	      0.00000000	     46.07392985	    -12.67585672	     -7.90948005	     52.54091184	      0.91701190	     -7.92130176	    -13.84206051	      0.00000000	    -45.02355478	     -3.13934065	      5.43988719	     53.68903479	     18.22493571	    -39.50796944	     54.47453148	      0.94621105	      0.00000000	      0.00000000	     51.87796791	      9.80738828	    -25.60420985	     42.74449588	      4.33140846	      0.00000000	      0.00000000
      7.81700000	    -20.86837257	     -2.86605308	      6.49722721	      0.08893576	      1.28290692	     -0.01463721	     84.12309735	     -6.37802759	      8.05260639	     87.97242598	      1.53540848	      3.75873191	    -27.06526403	      0.00000000	     47.21983456	    -12.31950044	     -7.29369772	     57.09527897	      0.99650061	     -6.40156478	    -13.27947292	      0.00000000	    -45.24872408	     -2.68264837	      4.67598999	     53.62833447	     18.11729922	    -39.71954396	     54.58337463	      0.95966247	      0.00000000	      0.00000000	     52.01285357	      9.87581530	    -25.35931809	     42.68367692	      4.36422648	      0.00000000	      0.00000000
      7.83300000	    -20.69959112	     -2.68896588	      7.78161897	      0.08891125	      1.28338321	     -0.01624761	     82.34004435	     -7.74670201	      7.28359829	     83.85256153	      1.46350328	      3.20608193	    -27.56319948	      0.00000000	     48.69693592	    -11.92225156	     -6.59648336	     62.05689624	      1.08309716	     -5.21364962	    -12.52553538	      0.00000000	    -45.47988770	     -2.17999779	      3.76503021	     53.48236559	     17.94757876	    -39.81276866	     54.67185352	      0.95779403	      0.00000000	      0.00000000	     52.16624056	      9.93891167	    -25.05692554	     42.66421284	      4.32047592	      0.00000000	      0.00000000
      7.85000000	    -20.52170212	     -2.34875666	      8.98707207	      0.08884266	      1.28398636	     -0.01773179	     80.20077679	     -9.12292840	      6.48101084	     79.53066927	      1.38807204	      2.37414386	    -27.85872525	      0.00000000	     50.25355794	    -11.40626903	     -5.97990156	     66.99843355	      1.16934326	     -4.16092374	    -12.11760615	      0.00000000	    -45.75048440	     -1.86958225	      2.81252918	     53.37382064	     17.81076395	    -40.01593351	     54.79404312	      0.94783123	      0.00000000	      0.00000000	     52.33319010	      9.98934216	    -24.67308221	     42.57882640	      4.03895425	      0.00000000	      0.00000000
      7.86700000	    -20.37746839	     -1.93608146	     10.23201621	      0.08862301	      1.28457171	     -0.01920002	     77.69672083	    -10.63560449	      5.42395429	     74.94866924	      1.30810105	      1.23098146	    -28.01533960	      0.00000000	     52.00771904	    -10.74773221	     -5.30643039	     71.90415002	      1.25496416	     -3.28764580	    -11.78422878	      0.00000000	    -45.99977592	     -1.58318748	      1.79036022	     53.24115722	     17.69007740	    -40.21208416	     54.92794609	      0.93873570	      0.00000000	      0.00000000	     52.50726928	     10.08219615	    -24.37121690	     42.50033775	      3.93760599	      0.00000000	      0.00000000
      7.88300000	    -20.25518443	     -1.63866256	     11.60502469	      0.08825064	      1.28508301	     -0.02074696	     74.79641613	    -12.23549162	      3.88289550	     70.06846227	      1.22292537	     -0.24338073	    -28.31011197	      0.00000000	     54.08856347	     -9.98911063	     -4.31211823	     76.85746421	      1.34141581	     -2.68890921	    -11.33912892	      0.00000000	    -46.19318431	     -1.11366547	      0.70371844	     53.11149886	     17.60501220	    -40.40005478	     55.05523889	      0.93309163	      0.00000000	      0.00000000	     52.63200317	     10.12072811	    -24.12163036	     42.42770017	      3.86118159	      0.00000000	      0.00000000
      7.90000000	    -20.19691858	     -1.46847044	     13.08157681	      0.08772884	      1.28557185	     -0.02234722	     71.73056126	    -13.84339543	      1.91182568	     65.19515904	      1.13787018	     -2.18719603	    -28.87644361	      0.00000000	     56.38140881	     -9.14462374	     -3.17494149	     81.51267978	      1.42266464	     -2.21536830	    -10.90254333	      0.00000000	    -46.31663680	     -0.49260927	     -0.38058472	     52.95881320	     17.54450413	    -40.57893101	     55.16840247	      0.92701154	      0.00000000	      0.00000000	     52.74169859	     10.18970464	    -23.95945194	     42.37193298	      4.14193137	      0.00000000	      0.00000000
      7.91700000	    -20.18704408	     -1.16710888	     14.42615150	      0.08706819	      1.28597944	     -0.02383156	     68.66190276	    -15.38053994	     -0.14360469	     60.50058582	      1.05593442	     -4.98006694	    -28.76101982	      0.00000000	     58.73700877	     -8.28879628	     -2.37871220	     85.92961401	      1.49975469	     -1.63809971	    -10.79007678	      0.00000000	    -46.45659020	     -0.09509412	     -1.38657480	     52.81828253	     17.44708026	    -40.92692217	     55.39882581	      0.91391015	      0.00000000	      0.00000000	     52.89076773	     10.21996272	    -23.50070660	     42.27448647	      4.35780886	      0.00000000	      0.00000000
